<svg width="68" height="82" viewBox="0 0 68 82" fill="none" xmlns="http://www.w3.org/2000/svg">
<path fill-rule="evenodd" clip-rule="evenodd" d="M63.6831 25.3683C64.1008 31.2854 61.5115 35.4527 55.9221 37.8634C60.1936 38.8123 63.3554 40.5167 65.3943 42.9749C67.4332 45.4314 68.1211 48.9137 67.4512 53.4201C67.098 55.7256 66.4127 57.7449 65.4014 59.4905C64.4868 61.1233 63.21 62.5856 61.6536 63.7907C60.1729 64.914 58.3438 65.8476 56.1732 66.5885C54.0026 67.3294 51.7377 67.8682 49.3852 68.2019C46.7048 68.5632 44.0085 68.7818 41.303 68.8552L40.7933 81.2757L32.2717 81.1905L32.7757 68.9657C30.5267 68.9498 28.2783 68.9122 26.0305 68.8534L25.5251 81.127L17.0034 81.0418L17.5131 68.6225C16.5188 68.6108 15.5247 68.5938 14.5308 68.5708C13.2033 68.5403 12.1893 68.5215 11.4885 68.5174L0.4244 68.4075L2.50844 59.5117L8.64774 59.5722C10.4895 59.5898 11.5943 58.7714 11.9621 57.1181L12.7705 37.5385L13.6513 37.5497C13.3588 37.5091 13.0657 37.4891 12.7653 37.4897L13.3462 23.5129C12.9557 21.302 11.3658 20.1798 8.55639 20.154L2.41709 20.0934L2.74626 12.1046L14.4697 12.2683C16.8319 12.2925 18.6208 12.2935 19.8429 12.2736L20.3483 1.52588e-05L28.8633 0.0816841L28.3716 12.1117C31.3965 12.0742 33.6461 12.0667 35.1209 12.0802L35.6166 0.147899L44.1383 0.229565L43.6329 12.5032C46.5358 12.7612 49.1012 13.1515 51.329 13.6763C53.4907 14.1789 55.5648 14.9369 57.4855 15.9299C59.3079 16.8565 60.8253 18.1775 61.8944 19.7709C62.9569 21.3596 63.551 23.2226 63.6831 25.3683ZM50.6966 51.7968C50.7435 50.6264 50.5063 49.5864 49.9919 48.6699C49.5227 47.8074 48.8571 47.0401 48.0408 46.4126C47.1119 45.7499 46.0586 45.2358 44.9203 44.8938C43.7499 44.5084 42.5574 44.1952 41.336 43.9573C39.9943 43.7223 38.6305 43.5619 37.2579 43.4785C35.9924 43.3821 34.7192 43.321 33.445 43.2963C32.2571 43.2875 31.0688 43.2904 29.8801 43.3069C28.9986 43.321 28.124 43.3292 27.2495 43.331L26.5706 59.7954C26.8642 59.7972 27.5447 59.8119 28.6118 59.8407C30.4723 59.9077 32.3345 59.9094 34.1986 59.846C36.3489 59.8148 38.4968 59.6327 40.6157 59.3007C41.6679 59.1515 42.7022 58.9329 43.7183 58.648C44.6339 58.3748 45.5246 58.0405 46.3902 57.6486C47.3098 57.2379 48.058 56.755 48.6277 56.2085C49.2107 55.6645 49.6898 55.0164 50.0648 54.2756C50.4533 53.5329 50.6573 52.7033 50.6966 51.7968ZM47.1455 25.7197C47.5871 26.6139 47.786 27.5904 47.7244 28.5745C47.6851 29.4805 47.4878 30.3095 47.126 31.0545C46.7783 31.7754 46.2393 32.4146 45.5574 32.9152C44.8961 33.397 44.1962 33.83 43.4577 34.2113C42.7397 34.5767 41.8302 34.8676 40.7293 35.0838C39.6351 35.2988 38.6823 35.4715 37.8577 35.5926C36.8459 35.7306 35.829 35.8105 34.8071 35.8317C33.5912 35.8675 32.6626 35.8928 32.0349 35.9016C31.4072 35.9104 30.553 35.9034 29.4658 35.8758C28.8321 35.8587 28.1918 35.8446 27.558 35.8335L28.1736 20.8807C29.8957 20.8837 31.6247 20.876 33.3474 20.8572C34.1419 20.849 35.2152 20.9013 36.5537 21.0117C37.8989 21.1222 39.0229 21.2626 39.9392 21.433C40.8555 21.604 41.8554 21.8842 42.9525 22.2667C44.0429 22.6498 44.9039 23.1139 45.5492 23.6551C46.1945 24.1997 46.7222 24.8848 47.1455 25.7197Z" fill="#B803FF"/>
</svg>
