<svg width="90" height="91" viewBox="0 0 90 91" fill="none" xmlns="http://www.w3.org/2000/svg">
<path d="M44.8531 0.449707C20.4978 0.449707 0.586914 20.6061 0.586914 45.4416C0.586914 70.2771 20.32 90.4335 44.8531 90.4335C69.3862 90.4335 89.1193 70.2771 89.1193 45.4416C89.1193 20.6061 69.3862 0.449707 44.8531 0.449707ZM57.4752 67.9375L57.2974 39.8626L29.7422 67.9375H16.2312L50.8975 32.8439H38.2754C34.3643 32.8439 31.1644 36.0833 31.1644 40.0426C31.1644 41.6623 31.6977 43.282 32.5866 44.3618L25.8311 51.2006C23.1645 48.1411 21.5645 44.1818 21.5645 39.8626C21.5645 30.5043 29.0311 22.9456 38.2754 22.9456H67.0751V67.7576L57.4752 67.9375Z" fill="#B803FF"/>
</svg>
