<svg width="30" height="22" viewBox="0 0 30 22" fill="none" xmlns="http://www.w3.org/2000/svg">
<path d="M24.633 2.40453C27.7874 7.08835 29.3646 12.3457 28.7911 18.4156C28.7911 18.4156 28.7911 18.4634 28.7433 18.4634C26.6403 20.0406 24.2506 21.2354 21.7175 22.0001C21.6697 22.0001 21.622 22.0001 21.622 22.0001C21.0962 21.2354 20.6183 20.4707 20.1881 19.6582V19.6104C20.1881 19.5626 20.1881 19.5626 20.2359 19.5148C21.0006 19.2281 21.7175 18.8935 22.4345 18.4634C22.4822 18.4634 22.4822 18.4634 22.4822 18.4156C22.4822 18.3678 22.4822 18.3678 22.4345 18.32C22.2911 18.2244 22.1477 18.1288 22.0043 17.9854H21.9565H21.9087C17.3683 20.0884 12.3977 20.0884 7.80946 17.9854C7.76166 17.9854 7.76166 17.9854 7.76166 17.9854C7.71387 17.9854 7.71387 17.9854 7.71387 17.9854C7.57048 18.1288 7.4271 18.2244 7.28372 18.32C7.23593 18.3678 7.23593 18.3678 7.23593 18.4156C7.23593 18.4634 7.23593 18.4634 7.28372 18.4634C7.95284 18.8935 8.71754 19.2281 9.48225 19.5148C9.48225 19.5626 9.53004 19.5626 9.53004 19.6104V19.6582C9.0999 20.4707 8.62196 21.2354 8.09622 22.0001C8.04843 22.0001 8.04843 22.0001 8.00063 22.0001C5.41975 21.2354 3.03004 20.0406 0.974897 18.4634C0.927103 18.4634 0.927103 18.4156 0.927103 18.4156C0.449161 13.1582 1.45284 7.85306 5.08519 2.40453C5.08519 2.40453 5.08519 2.40453 5.13298 2.40453C6.90137 1.59203 8.86093 0.970703 10.8205 0.636144C10.8205 0.636144 10.8205 0.636144 10.8683 0.636144H10.9161C11.2028 1.11409 11.4418 1.63982 11.633 2.11776C12.6845 1.97438 13.7359 1.87879 14.8352 1.87879C15.9345 1.87879 17.0337 1.97438 18.0852 2.11776C18.2764 1.63982 18.5153 1.11409 18.8021 0.636144L18.8499 0.58835C18.8499 0.58835 18.8499 0.636144 18.8977 0.636144C20.8572 0.970703 22.8168 1.59203 24.5852 2.40453C24.633 2.40453 24.633 2.40453 24.633 2.40453ZM10.1992 15.2134C11.5852 15.2134 12.7322 13.9229 12.7322 12.3935C12.7322 10.8163 11.633 9.57364 10.1992 9.57364C8.81313 9.57364 7.66607 10.8163 7.66607 12.3935C7.66607 13.9229 8.81313 15.2134 10.1992 15.2134ZM19.519 15.2134C20.9528 15.2134 22.0521 13.9229 22.0521 12.3935C22.0999 10.8163 20.9528 9.57364 19.519 9.57364C18.133 9.57364 17.0337 10.8163 17.0337 12.3935C17.0337 13.9229 18.133 15.2134 19.519 15.2134Z" fill="#F3F3F3"/>
</svg>
