<svg width="25" height="21" viewBox="0 0 25 21" fill="none" xmlns="http://www.w3.org/2000/svg">
<path d="M22.291 5.32364C22.291 5.56261 22.291 5.75379 22.291 5.99276C22.291 12.6361 17.2726 20.2354 8.04837 20.2354C5.18072 20.2354 2.55205 19.4229 0.353516 17.9891C0.735869 18.0369 1.11822 18.0847 1.54837 18.0847C3.89028 18.0847 6.04102 17.2722 7.7616 15.9339C5.56307 15.8861 3.6991 14.4523 3.07778 12.445C3.41234 12.4928 3.6991 12.5406 4.03366 12.5406C4.46381 12.5406 4.94175 12.445 5.3241 12.3494C3.02999 11.8714 1.3094 9.86409 1.3094 7.42659V7.37879C1.97852 7.76114 2.79102 7.95232 3.60352 8.00011C2.21749 7.09203 1.35719 5.56261 1.35719 3.84203C1.35719 2.88614 1.59616 2.02585 2.02631 1.30894C4.5116 4.31997 8.23955 6.32732 12.3976 6.56629C12.302 6.18394 12.2543 5.80159 12.2543 5.41923C12.2543 2.64717 14.5006 0.40085 17.2726 0.40085C18.7065 0.40085 19.9969 0.974379 20.9528 1.97806C22.052 1.73909 23.1513 1.30894 24.1072 0.735409C23.7248 1.93026 22.9601 2.88614 21.9087 3.50747C22.9123 3.41188 23.916 3.12511 24.7763 2.74276C24.1072 3.74644 23.2469 4.60673 22.291 5.32364Z" fill="#F3F3F3"/>
</svg>
