<svg width="27" height="19" viewBox="0 0 27 19" fill="none" xmlns="http://www.w3.org/2000/svg">
<path d="M26.4157 3.0332C26.9893 5.04056 26.9893 9.34203 26.9893 9.34203C26.9893 9.34203 26.9893 13.5957 26.4157 15.6509C26.129 16.7979 25.2209 17.6582 24.1216 17.945C22.0665 18.4707 13.9415 18.4707 13.9415 18.4707C13.9415 18.4707 5.76867 18.4707 3.71352 17.945C2.61426 17.6582 1.70617 16.7979 1.4194 15.6509C0.845875 13.5957 0.845875 9.34203 0.845875 9.34203C0.845875 9.34203 0.845875 5.04056 1.4194 3.0332C1.70617 1.88614 2.61426 0.978056 3.71352 0.691291C5.76867 0.117762 13.9415 0.117762 13.9415 0.117762C13.9415 0.117762 22.0665 0.117762 24.1216 0.691291C25.2209 0.978056 26.129 1.88614 26.4157 3.0332ZM11.265 13.2134L18.0518 9.34203L11.265 5.4707V13.2134Z" fill="#F3F3F3"/>
</svg>
