<svg width="61" height="61" viewBox="0 0 61 61" fill="none" xmlns="http://www.w3.org/2000/svg">
<path d="M43.4984 18.2058C47.6835 24.42 49.776 31.3951 49.0151 39.4482C49.0151 39.4482 49.0151 39.5116 48.9517 39.5116C46.1617 41.6041 42.9911 43.1894 39.6304 44.2039C39.567 44.2039 39.5036 44.2039 39.5036 44.2039C38.8061 43.1894 38.172 42.1748 37.6013 41.0968V41.0334C37.6013 40.97 37.6013 40.97 37.6647 40.9066C38.6793 40.5261 39.6304 40.0823 40.5816 39.5116C40.645 39.5116 40.645 39.5116 40.645 39.4482C40.645 39.3848 40.645 39.3848 40.5816 39.3213C40.3913 39.1945 40.2011 39.0677 40.0109 38.8775H39.9475H39.884C33.8601 41.6675 27.2654 41.6675 21.178 38.8775C21.1146 38.8775 21.1146 38.8775 21.1146 38.8775C21.0512 38.8775 21.0512 38.8775 21.0512 38.8775C20.861 39.0677 20.6708 39.1945 20.4805 39.3213C20.4171 39.3848 20.4171 39.3848 20.4171 39.4482C20.4171 39.5116 20.4171 39.5116 20.4805 39.5116C21.3683 40.0823 22.3828 40.5261 23.3974 40.9066C23.3974 40.97 23.4608 40.97 23.4608 41.0334V41.0968C22.8901 42.1748 22.256 43.1894 21.5585 44.2039C21.4951 44.2039 21.4951 44.2039 21.4317 44.2039C18.0075 43.1894 14.837 41.6041 12.1104 39.5116C12.047 39.5116 12.047 39.4482 12.047 39.4482C11.4129 32.473 12.7445 25.4345 17.5637 18.2058C17.5637 18.2058 17.5637 18.2058 17.6271 18.2058C19.9732 17.1278 22.5731 16.3034 25.1729 15.8596C25.1729 15.8596 25.1729 15.8596 25.2363 15.8596H25.2997C25.6802 16.4937 25.9972 17.1912 26.2509 17.8253C27.6459 17.6351 29.0409 17.5082 30.4993 17.5082C31.9578 17.5082 33.4162 17.6351 34.8112 17.8253C35.0649 17.1912 35.3819 16.4937 35.7624 15.8596L35.8258 15.7962C35.8258 15.7962 35.8258 15.8596 35.8892 15.8596C38.489 16.3034 41.0888 17.1278 43.435 18.2058C43.4984 18.2058 43.4984 18.2058 43.4984 18.2058ZM24.3485 35.1997C26.1874 35.1997 27.7093 33.4876 27.7093 31.4585C27.7093 29.3659 26.2509 27.7173 24.3485 27.7173C22.5097 27.7173 20.9878 29.3659 20.9878 31.4585C20.9878 33.4876 22.5097 35.1997 24.3485 35.1997ZM36.7135 35.1997C38.6158 35.1997 40.0743 33.4876 40.0743 31.4585C40.1377 29.3659 38.6158 27.7173 36.7135 27.7173C34.8746 27.7173 33.4162 29.3659 33.4162 31.4585C33.4162 33.4876 34.8746 35.1997 36.7135 35.1997Z" fill="#F3F3F3"/>
<rect x="1.14054" y="1.01456" width="58.8447" height="58.8447" rx="9.13107" stroke="#F3F3F3" stroke-opacity="0.2" stroke-width="2.02913"/>
</svg>
