<svg width="62" height="61" viewBox="0 0 62 61" fill="none" xmlns="http://www.w3.org/2000/svg">
<path d="M46.7263 30C46.7263 37.8629 40.956 44.3942 33.4102 45.5355V34.5656H37.088L37.7855 30H33.4102V27.0832C33.4102 25.815 34.0443 24.6102 36.01 24.6102H37.9757V20.7422C37.9757 20.7422 36.2002 20.4251 34.4247 20.4251C30.8738 20.4251 28.5276 22.6445 28.5276 26.5759V30H24.5327V34.5656H28.5276V45.5355C20.9818 44.3942 15.2749 37.8629 15.2749 30C15.2749 21.3129 22.3134 14.2743 31.0006 14.2743C39.6878 14.2743 46.7263 21.3129 46.7263 30Z" fill="#F3F3F3"/>
<rect x="1.57804" y="1.01456" width="58.8447" height="58.8447" rx="9.13107" stroke="#F3F3F3" stroke-opacity="0.2" stroke-width="2.02913"/>
</svg>
