<svg width="123" height="123" viewBox="0 0 123 123" fill="none" xmlns="http://www.w3.org/2000/svg">
<rect width="123" height="123" rx="20" fill="black"/>
<rect x="0.5" y="0.5" width="122" height="122" rx="19.5" stroke="white" stroke-opacity="0.05"/>
<rect x="0.5" y="0.5" width="122" height="122" rx="19.5" stroke="url(#paint0_radial_2079_450)" stroke-opacity="0.4"/>
<path d="M84.5296 85.7178V45.4752H79.282V85.7178H75.9772V33L48.015 40.7862V51.9401H59.9597V85.7178H56.6549V55.2223H42.7753V85.7178H36V89H88V85.7178H84.5296ZM66.2437 67.0074V60.4057H69.5486V67.0074H66.2437ZM69.5486 72.4624V79.0641H66.2437V72.4624H69.5486ZM66.2437 54.9506V48.349H69.5486V54.9506H66.2437ZM48.0626 60.4057H51.3675V67.0074H48.0626V60.4057ZM48.0626 72.4624H51.3675V79.0641H48.0626V72.4624Z" fill="url(#paint1_linear_2079_450)"/>
<defs>
<radialGradient id="paint0_radial_2079_450" cx="0" cy="0" r="1" gradientUnits="userSpaceOnUse" gradientTransform="translate(61.5) rotate(90) scale(67.6239 54.2697)">
<stop stop-color="white"/>
<stop offset="1" stop-color="white" stop-opacity="0"/>
</radialGradient>
<linearGradient id="paint1_linear_2079_450" x1="38.3989" y1="33" x2="85.6011" y2="89" gradientUnits="userSpaceOnUse">
<stop stop-color="#7607D3"/>
<stop offset="1" stop-color="#C37BFE"/>
</linearGradient>
</defs>
</svg>
