<svg width="123" height="123" viewBox="0 0 123 123" fill="none" xmlns="http://www.w3.org/2000/svg">
<rect width="123" height="123" rx="20" fill="black"/>
<rect x="0.5" y="0.5" width="122" height="122" rx="19.5" stroke="white" stroke-opacity="0.05"/>
<rect x="0.5" y="0.5" width="122" height="122" rx="19.5" stroke="url(#paint0_radial_2079_448)" stroke-opacity="0.4"/>
<path d="M83.7472 69.132C80.5023 69.132 77.3162 68.6341 74.2971 67.6552C72.8176 67.1601 70.9989 67.6143 70.096 68.5242L64.1367 72.9379C57.2256 69.3184 52.9685 65.1429 49.3297 58.4131L53.696 52.7186C54.8304 51.6071 55.2373 49.9834 54.7498 48.46C53.7477 45.4822 53.2387 42.3577 53.2387 39.1727C53.2389 36.8719 51.331 35 48.986 35H39.2528C36.9079 35 35 36.8719 35 39.1726C35 65.545 56.8677 87 83.7472 87C86.0921 87 88 85.1281 88 82.8274V73.3045C87.9999 71.0039 86.092 69.132 83.7472 69.132Z" fill="url(#paint1_linear_2079_448)"/>
<defs>
<radialGradient id="paint0_radial_2079_448" cx="0" cy="0" r="1" gradientUnits="userSpaceOnUse" gradientTransform="translate(61.5) rotate(90) scale(67.6239 54.2697)">
<stop stop-color="white"/>
<stop offset="1" stop-color="white" stop-opacity="0"/>
</radialGradient>
<linearGradient id="paint1_linear_2079_448" x1="79.9144" y1="87" x2="43.2826" y2="34.8616" gradientUnits="userSpaceOnUse">
<stop stop-color="#C47CFF"/>
<stop offset="1" stop-color="#7200D1"/>
</linearGradient>
</defs>
</svg>
