<svg width="62" height="61" viewBox="0 0 62 61" fill="none" xmlns="http://www.w3.org/2000/svg">
<path d="M43.5906 23.4054C43.5906 23.7224 43.5906 23.9761 43.5906 24.2931C43.5906 33.1071 36.9326 43.1894 24.6944 43.1894C20.8898 43.1894 17.4022 42.1114 14.4854 40.2091C14.9926 40.2725 15.4999 40.3359 16.0706 40.3359C19.1777 40.3359 22.0312 39.2579 24.3139 37.4825C21.3971 37.419 18.9241 35.5167 18.0997 32.8535C18.5436 32.9169 18.9241 32.9803 19.3679 32.9803C19.9386 32.9803 20.5727 32.8535 21.08 32.7267C18.0363 32.0926 15.7536 29.4294 15.7536 26.1954V26.132C16.6413 26.6393 17.7193 26.8929 18.7972 26.9564C16.9583 25.7516 15.817 23.7224 15.817 21.4397C15.817 20.1715 16.134 19.0301 16.7047 18.0789C20.002 22.0738 24.948 24.737 30.4647 25.0541C30.3379 24.5468 30.2745 24.0395 30.2745 23.5322C30.2745 19.8544 33.2548 16.8741 36.9326 16.8741C38.8349 16.8741 40.5469 17.6351 41.8151 18.9667C43.2736 18.6496 44.732 18.0789 46.0002 17.318C45.4929 18.9033 44.4784 20.1715 43.0833 20.9958C44.415 20.869 45.7466 20.4885 46.888 19.9812C46.0002 21.3129 44.8588 22.4542 43.5906 23.4054Z" fill="#F3F3F3"/>
<rect x="1.29581" y="1.01456" width="58.8447" height="58.8447" rx="9.13107" stroke="#F3F3F3" stroke-opacity="0.2" stroke-width="2.02913"/>
</svg>
