<svg width="62" height="61" viewBox="0 0 62 61" fill="none" xmlns="http://www.w3.org/2000/svg">
<path d="M49.861 21.6933C50.6219 24.3565 50.6219 30.0635 50.6219 30.0635C50.6219 30.0635 50.6219 35.707 49.861 38.4336C49.4806 39.9554 48.2758 41.0968 46.8173 41.4773C44.0907 42.1748 33.311 42.1748 33.311 42.1748C33.311 42.1748 22.4678 42.1748 19.7412 41.4773C18.2827 41.0968 17.078 39.9554 16.6975 38.4336C15.9366 35.707 15.9366 30.0635 15.9366 30.0635C15.9366 30.0635 15.9366 24.3565 16.6975 21.6933C17.078 20.1715 18.2827 18.9667 19.7412 18.5862C22.4678 17.8253 33.311 17.8253 33.311 17.8253C33.311 17.8253 44.0907 17.8253 46.8173 18.5862C48.2758 18.9667 49.4806 20.1715 49.861 21.6933ZM29.76 35.1997L38.7642 30.0635L29.76 24.9272V35.1997Z" fill="#F3F3F3"/>
<rect x="1.85929" y="1.01456" width="58.8447" height="58.8447" rx="9.13107" stroke="#F3F3F3" stroke-opacity="0.2" stroke-width="2.02913"/>
</svg>
