<svg width="42" height="42" viewBox="0 0 42 42" fill="none" xmlns="http://www.w3.org/2000/svg">
<g clip-path="url(#clip0_434_4281)">
<g clip-path="url(#clip1_434_4281)">
<path d="M33.3821 0.536621H8.54913C3.97751 0.536621 0.271484 4.24265 0.271484 8.81427V33.6472C0.271484 38.2188 3.97751 41.9249 8.54913 41.9249H33.3821C37.9537 41.9249 41.6597 38.2188 41.6597 33.6472V8.81427C41.6597 4.24265 37.9537 0.536621 33.3821 0.536621Z" fill="url(#paint0_linear_434_4281)"/>
<path d="M33.3819 1.18359H8.54893C4.33447 1.18359 0.917969 4.60009 0.917969 8.81455V33.6475C0.917969 37.862 4.33447 41.2785 8.54893 41.2785H33.3819C37.5963 41.2785 41.0128 37.862 41.0128 33.6475V8.81455C41.0128 4.60009 37.5963 1.18359 33.3819 1.18359Z" fill="url(#paint1_linear_434_4281)" stroke="url(#paint2_linear_434_4281)" stroke-opacity="0.8"/>
<path d="M21.6863 29.5719C21.9253 29.5232 22.1578 29.4532 22.3817 29.36C22.6055 29.2688 22.8163 29.1565 23.0054 29.0293C23.1749 28.9212 23.3314 28.792 23.4813 28.6563C25.2524 27.6623 26.715 27.6093 31.2504 27.5924C31.6568 27.9823 32.2131 28.224 32.8281 28.224C34.069 28.224 35.0774 27.2405 35.0774 26.0282C35.0774 25.4411 34.8426 24.8879 34.4167 24.4747C33.9908 24.0614 33.4257 23.8346 32.8281 23.8367C32.2131 23.8367 31.6568 24.0783 31.2504 24.4683C30.0877 24.4577 29.1272 24.4407 28.3144 24.4047C29.3076 22.8469 29.9639 21.3167 30.2681 19.8309C30.5137 19.7229 30.744 19.5745 30.9418 19.3837C31.785 18.5572 31.7893 17.1159 30.9375 16.2809C30.5115 15.8676 29.9465 15.6408 29.3467 15.6387C28.7447 15.6387 28.1797 15.8676 27.7581 16.2788C27.5603 16.4716 27.4104 16.6942 27.2974 16.9358C25.7718 17.2325 24.2006 17.8747 22.599 18.8454C22.5642 18.0485 22.549 17.1075 22.5425 15.9736C22.9424 15.5772 23.1901 15.0368 23.1901 14.437C23.1901 13.2268 22.1796 12.2412 20.9365 12.2412C19.6935 12.2412 18.6873 13.2268 18.6873 14.437C18.6873 15.0177 18.9176 15.5624 19.3349 15.9757C19.3284 17.1117 19.3132 18.0527 19.2784 18.8518C17.6724 17.8747 16.0925 17.2325 14.5583 16.9358C14.4518 16.6963 14.3083 16.4716 14.1128 16.2788C13.237 15.4289 11.8114 15.4289 10.9334 16.283C10.5096 16.7005 10.2749 17.2516 10.2749 17.8387C10.2749 18.4258 10.5075 18.9747 10.9291 19.388C11.1268 19.5809 11.3572 19.7271 11.6049 19.8352C11.9092 21.323 12.5676 22.8554 13.5629 24.4174C12.748 24.4492 11.7875 24.4598 10.627 24.4683C10.2206 24.0783 9.66644 23.8367 9.0536 23.8367C8.45381 23.8367 7.88878 24.0614 7.46067 24.4747C7.03473 24.8901 6.80002 25.4411 6.79785 26.0282C6.79785 27.2405 7.80838 28.224 9.05143 28.224C9.66427 28.224 10.2206 27.9823 10.6248 27.5924C15.1776 27.622 16.6749 27.728 18.5265 28.7729C18.6351 28.8619 18.746 28.9488 18.8611 29.0251C19.0567 29.1544 19.2697 29.2688 19.4914 29.3579C19.7152 29.4511 19.9499 29.5232 20.1889 29.5719C20.428 29.6185 20.6801 29.644 20.9365 29.644C21.1929 29.644 21.445 29.6185 21.6841 29.5719H21.6863ZM11.3028 26.0282C11.3028 25.9307 11.2855 25.8375 11.2724 25.7421C14.2258 25.7145 15.9143 25.6255 17.3399 25.1847C17.3312 25.2228 17.3182 25.261 17.3095 25.3012C17.2595 25.5365 17.2334 25.7802 17.2334 26.0282C17.2334 26.2762 17.2595 26.522 17.3095 26.7594C17.316 26.7933 17.3269 26.8251 17.3356 26.859C15.91 26.4309 14.2258 26.3461 11.2724 26.3186C11.2855 26.2232 11.3028 26.1278 11.3028 26.0282ZM21.2321 16.603C21.2581 19.5067 21.4081 21.162 21.8536 22.5332C21.7971 22.5184 21.7406 22.5014 21.6819 22.4909C21.4429 22.4442 21.1929 22.4188 20.9387 22.4188C20.6844 22.4188 20.4367 22.4442 20.1933 22.4909C20.1346 22.5036 20.0781 22.5205 20.0194 22.5354C20.4671 21.1641 20.6171 19.5109 20.6431 16.6073C20.7409 16.62 20.8365 16.6348 20.9343 16.6348C21.0365 16.6348 21.1321 16.6179 21.2299 16.6051L21.2321 16.603ZM30.5745 26.0282C30.5745 26.1257 30.5919 26.219 30.605 26.3143C27.6255 26.3313 25.9565 26.3885 24.557 26.7997C24.5592 26.787 24.5657 26.7721 24.5679 26.7594C24.67 26.2825 24.67 25.7823 24.5679 25.3034C24.557 25.2482 24.5396 25.1931 24.5244 25.138C25.9522 25.5916 27.6386 25.7039 30.6028 25.74C30.5897 25.8353 30.5724 25.9286 30.5724 26.0261L30.5745 26.0282ZM18.9524 24.7269C19.0393 24.6018 19.1393 24.4874 19.2501 24.3793C19.3588 24.2733 19.4783 24.1779 19.6022 24.0953C19.7282 24.0126 19.8651 23.9384 20.0086 23.8812C20.152 23.8219 20.3019 23.7752 20.4562 23.7456C20.6127 23.7159 20.7735 23.6989 20.9409 23.6989C21.1082 23.6989 21.269 23.7159 21.4211 23.7456C21.5776 23.7774 21.7297 23.824 21.8732 23.8812C22.0144 23.9406 22.1513 24.0147 22.2752 24.0932C22.4034 24.18 22.5229 24.2733 22.6359 24.3856C22.7446 24.4916 22.8424 24.6061 22.925 24.7247C23.0097 24.8498 23.0858 24.9833 23.1466 25.1253C23.2075 25.2652 23.2531 25.4093 23.2835 25.5598C23.3161 25.7188 23.3335 25.8714 23.3335 26.0303C23.3335 26.1893 23.3183 26.3461 23.2857 26.5008C23.2509 26.6534 23.2053 26.8018 23.1445 26.9417C23.0836 27.0816 23.0075 27.2151 22.925 27.3359C22.838 27.461 22.7381 27.5775 22.6316 27.6835C22.5251 27.7873 22.4078 27.8827 22.2752 27.9696C22.1491 28.0523 22.0144 28.1243 21.8753 28.1837C21.7297 28.243 21.5798 28.2897 21.4233 28.3193C21.2712 28.3511 21.1082 28.366 20.943 28.366C20.7779 28.366 20.6149 28.3511 20.4628 28.3193C20.3085 28.2897 20.1585 28.243 20.0107 28.1816C19.8673 28.1222 19.7304 28.0502 19.6044 27.9675C19.4783 27.8848 19.3588 27.7895 19.2501 27.6814C19.1415 27.5754 19.0437 27.461 18.9568 27.3359C18.872 27.2109 18.7981 27.0795 18.7373 26.9374C18.6764 26.7976 18.6286 26.6513 18.5982 26.5008C18.5352 26.1978 18.5352 25.8629 18.5982 25.5598C18.6308 25.4093 18.6764 25.2631 18.7394 25.1232C18.8003 24.9833 18.872 24.8519 18.9568 24.729L18.9524 24.7269ZM23.6378 23.3768C23.5139 23.1606 23.4052 22.9465 23.3074 22.7303C24.331 21.9483 25.4198 21.2086 26.7345 20.3778C25.8848 21.6579 25.1286 22.7176 24.3288 23.7095C24.0963 23.612 23.8681 23.5018 23.6356 23.3768H23.6378ZM18.2027 23.4382C17.9897 23.5527 17.7767 23.6544 17.5616 23.7456C16.751 22.7388 15.9882 21.6706 15.132 20.382C16.4533 21.2149 17.542 21.9546 18.5634 22.7367C18.4569 22.972 18.3374 23.203 18.2027 23.4382ZM33.4866 25.3818C33.6648 25.5534 33.7626 25.7845 33.7626 26.0282C33.7626 26.5326 33.3432 26.9438 32.8259 26.9438C32.3087 26.9438 31.8871 26.5326 31.8871 26.0282C31.8871 25.5238 32.3087 25.1147 32.8281 25.1147C33.078 25.1147 33.3127 25.208 33.4888 25.3797L33.4866 25.3818ZM25.6632 24.1207C26.6107 22.9084 27.5147 21.5837 28.6035 19.8966C28.6882 19.9263 28.7751 19.956 28.8642 19.9751C28.5209 21.3675 27.8429 22.813 26.8171 24.2987C26.3912 24.2521 26.013 24.1949 25.6653 24.1207H25.6632ZM30.0073 17.1859C30.1855 17.3597 30.2812 17.5886 30.2812 17.8344C30.2812 18.0803 30.1855 18.3092 30.0117 18.4787C29.8313 18.6525 29.5944 18.7479 29.3423 18.7479C29.0946 18.7479 28.8599 18.6525 28.6817 18.4787C28.3275 18.1354 28.3253 17.5335 28.686 17.1838C28.8599 17.0121 29.0946 16.9188 29.3467 16.9188C29.5988 16.9188 29.8357 17.0142 30.0095 17.1859H30.0073ZM27.1474 18.3007C27.167 18.3876 27.1974 18.4724 27.2257 18.555C25.4937 19.6169 24.1333 20.5028 22.8837 21.4311C22.8076 21.0899 22.7489 20.7211 22.7033 20.3078C24.231 19.3011 25.7175 18.6377 27.1453 18.3028L27.1474 18.3007ZM20.9365 13.5235C21.4537 13.5235 21.8775 13.9346 21.8775 14.4391C21.8775 14.9435 21.4559 15.3526 20.9365 15.3526C20.6888 15.3526 20.4541 15.2593 20.2759 15.0876C20.0977 14.9138 19.9999 14.6849 19.9999 14.4391C19.9999 13.9346 20.4193 13.5235 20.9365 13.5235ZM18.9894 21.4375C17.742 20.5092 16.375 19.6211 14.6278 18.5487C14.656 18.466 14.6843 18.3834 14.7017 18.2986C16.1403 18.6335 17.6355 19.299 19.1719 20.3099C19.1263 20.7232 19.0676 21.0941 18.9894 21.4354V21.4375ZM11.857 18.483C11.5071 18.1396 11.5093 17.5313 11.8613 17.1901C12.2264 16.8341 12.8219 16.8341 13.1848 17.188C13.3652 17.3639 13.4608 17.5928 13.4608 17.8387C13.4608 18.0845 13.3652 18.3113 13.1848 18.483C13.0088 18.6568 12.7741 18.7521 12.5242 18.7521C12.2721 18.7521 12.0352 18.6568 11.857 18.483ZM13.0023 19.9772C13.0914 19.9581 13.1761 19.9284 13.263 19.9009C14.3561 21.5964 15.2667 22.9275 16.2251 24.1525C15.8752 24.2246 15.4927 24.2797 15.0646 24.3221C14.028 22.83 13.3478 21.376 13.0023 19.9793V19.9772ZM8.11262 26.0303C8.11262 25.7845 8.21041 25.5556 8.38861 25.3818C8.56464 25.2101 8.80152 25.1147 9.0536 25.1168C9.56865 25.1168 9.99024 25.5259 9.99024 26.0303C9.99024 26.5348 9.57082 26.9459 9.0536 26.9459C8.53639 26.9459 8.11262 26.5369 8.11262 26.0324V26.0303Z" fill="white"/>
</g>
</g>
<defs>
<linearGradient id="paint0_linear_434_4281" x1="0.271485" y1="3.12339" x2="39.073" y2="41.9249" gradientUnits="userSpaceOnUse">
<stop stop-color="#765BAD"/>
<stop offset="1" stop-color="#3D209A"/>
</linearGradient>
<linearGradient id="paint1_linear_434_4281" x1="0.917969" y1="1.18359" x2="41.0128" y2="41.2785" gradientUnits="userSpaceOnUse">
<stop stop-color="#8A03F8"/>
<stop offset="1" stop-color="#B303FE"/>
</linearGradient>
<linearGradient id="paint2_linear_434_4281" x1="2.85196" y1="2.93845" x2="40.1333" y2="43.4429" gradientUnits="userSpaceOnUse">
<stop stop-color="white"/>
<stop offset="1" stop-color="#999999" stop-opacity="0"/>
</linearGradient>
<clipPath id="clip0_434_4281">
<rect width="41.3882" height="41.3882" fill="white" transform="translate(0.271484 0.536621)"/>
</clipPath>
<clipPath id="clip1_434_4281">
<rect width="41.3882" height="41.3882" fill="white" transform="translate(0.271484 0.536621)"/>
</clipPath>
</defs>
</svg>
