<svg width="32" height="32" viewBox="0 0 32 32" fill="none" xmlns="http://www.w3.org/2000/svg">
<g clip-path="url(#clip0_434_4540)">
<path fill-rule="evenodd" clip-rule="evenodd" d="M3.02832 15.9999C3.02832 8.83582 8.83595 3.0282 16 3.0282C23.1641 3.0282 28.9717 8.83582 28.9717 15.9999C28.9717 23.164 23.1641 28.9716 16 28.9716C8.83595 28.9716 3.02832 23.164 3.02832 15.9999ZM20.8099 14.323C21.3165 13.8165 21.3165 12.9952 20.8099 12.4886C20.3034 11.982 19.482 11.982 18.9755 12.4886L14.704 16.76L13.0269 15.0829C12.5203 14.5763 11.699 14.5763 11.1924 15.0829C10.6859 15.5895 10.6859 16.4108 11.1924 16.9174L13.7868 19.5117C14.2933 20.0183 15.1147 20.0183 15.6212 19.5117L20.8099 14.323Z" fill="white"/>
</g>
<defs>
<clipPath id="clip0_434_4540">
<rect width="31.1321" height="31.1321" fill="white"/>
</clipPath>
</defs>
</svg>
